<svg viewBox="0 0 50 60" fill="currentColor" xmlns="http://www.w3.org/2000/svg">
  <path
    d="M21.7997 0V28.8882H28.2248V0H21.7997ZM2.08468 0.414305L0 17.6967C6.34617 21.4979 12.7214 23.7362 19.3648 24.3991V1.88962C13.6001 1.65962 7.83907 1.14622 2.08468 0.414305ZM47.614 0.449651C41.9595 1.30982 36.3066 1.79368 30.6596 1.96069V24.0519C36.7484 23.1104 43.1437 20.9749 50 17.6336L47.614 0.449903V0.449651ZM47.3614 21.4719C41.5668 23.9773 36.0182 25.617 30.6596 26.3913V28.8882H35.4845V46.9637H30.6596V48.0642C30.6596 52.4079 27.9865 55.144 25.0244 55.1687C22.0624 55.194 19.3648 52.4748 19.3648 48.0642V46.9634L15.7614 46.9637H14.5441V28.8882H19.365V26.7185C13.6616 26.1929 8.14161 24.5906 2.72833 21.9137C3.38501 33.6145 3.2052 45.314 2.06866 57.0152C17.3653 61.0606 32.6599 60.9287 47.9562 57.0152C47.0633 45.1669 46.7545 33.32 47.3617 21.4719H47.3614ZM16.9789 31.2473V44.6046H33.0498V31.2472H16.9787L16.9789 31.2473ZM19.6459 33.5393H30.3827V42.0602H19.6458V33.5393H19.6459ZM22.0806 35.8982V39.7012H27.9479V35.8981H22.0809L22.0806 35.8982ZM21.7998 46.9638V48.0643C21.7998 51.6279 23.5353 52.8224 25.0042 52.81C26.4726 52.7976 28.2248 51.5454 28.2248 48.0643V46.9635L21.7997 46.9638H21.7998Z" />
</svg>