<svg viewBox="0 0 60 60" fill="currentColor" xmlns="http://www.w3.org/2000/svg">
  <path
    d="M48.4997 28.7434L32.2907 28.7434L32.2907 21.111L43.7911 21.111L43.7911 -7.08515e-07L18.1005 -1.83149e-06L18.1005 21.111L28.4701 21.111L28.4701 28.7436L10.3694 28.7436L10.3694 38.8195L3.51259e-06 38.8195L2.58676e-06 60L25.691 60L25.691 38.8195L14.1904 38.8195L14.1904 32.5191L44.679 32.5191L44.679 38.8193L34.3092 38.8193L34.3092 60L60 60L60 38.8195L48.5 38.8195L48.5 28.7434L48.4997 28.7434ZM56.1796 42.5947L56.1796 56.2251L38.1306 56.2251L38.1306 42.5947L56.1796 42.5947ZM21.87 42.5947L21.87 56.2251L3.82099 56.225L3.82099 42.5947L21.87 42.5947Z" />
</svg>