<svg viewBox="0 0 55 60" fill="currentColor" xmlns="http://www.w3.org/2000/svg">
  <path
    d="M27.4854 0.000387096C23.6349 0.000387096 20.0987 1.84174 17.4426 5.21235C14.7865 8.56736 13.1834 13.4204 13.1834 18.7104C13.1834 24.3281 15.0851 29.2436 18.0555 32.6766L19.5 34.7832L17 35.3606C8.7803 37.2176 5.54522 39.9012 3.28991 45.8778C1.13676 51.4486 0 60 0 60H54.9997C54.9997 60 55.0677 52.7754 53.1032 47.1265C50.9972 40.9783 47.1467 37.0927 38.3297 35.3606L35.2022 34.7832L37.2296 32.3333C40.0114 28.9159 41.7559 24.1252 41.7559 18.6792C41.7559 13.3892 40.1371 8.55175 37.481 5.21235C34.8407 1.82613 31.3045 -0.0308223 27.4854 0.000387096Z" />
</svg>