<svg width="49" height="48" viewBox="0 0 49 48" fill="none" xmlns="http://www.w3.org/2000/svg">
<path d="M22.688 0C20.0684 0.237194 17.5107 0.857787 15.1692 1.88212C16.7126 5.16526 16.5973 8.56665 14.4944 10.14C12.4021 11.705 9.06626 10.9382 6.34805 8.56775C4.71666 10.517 3.40218 12.7124 2.4443 15.144C5.84144 16.3799 8.13147 18.9184 7.76043 21.5073C7.38908 24.0962 4.47706 25.8904 0.869141 26.1263C1.10392 28.7113 1.76387 31.2147 2.77076 33.5293C4.5592 32.7093 6.36502 32.4179 7.90161 32.6336C9.21026 32.821 10.3043 33.3365 11.0302 34.3028C12.6185 36.4169 11.7937 39.7855 9.34522 42.5169C11.305 44.1553 13.5845 45.4674 16.0325 46.428C17.2706 43.0382 19.8137 40.7528 22.409 41.1232C25.0042 41.4936 26.8013 44.3996 27.0377 48C29.6573 47.763 32.2149 47.1427 34.5565 46.1181C32.9733 42.8115 33.1245 39.3452 35.2436 37.7601C36.2117 37.0356 37.5099 36.856 38.8179 37.0461C40.3354 37.2625 41.9499 38.0732 43.3932 39.3288C45.0088 37.3903 46.3455 35.1692 47.297 32.7557C43.8999 31.52 41.6098 28.9826 41.9811 26.3925C42.3523 23.8025 45.2612 22.0061 48.8691 21.7704C48.6322 19.1705 47.9881 16.6935 46.9706 14.3675C43.6958 15.8824 40.2768 15.6848 38.708 13.5972C37.1319 11.4985 37.9798 8.19998 40.3838 5.48032C38.4237 3.8417 36.1414 2.52947 33.6935 1.56897C32.4551 4.95883 29.912 7.2468 27.3169 6.87683C24.7215 6.50676 22.9242 3.6004 22.6882 0H22.688ZM24.8626 9.53246C32.8585 9.53246 39.3606 16.0212 39.3606 24.0001C39.3606 31.9793 32.8585 38.4678 24.8627 38.4678C16.867 38.4678 10.365 31.9793 10.365 24.0002C10.365 16.0212 16.867 9.53266 24.8628 9.53266L24.8626 9.53246ZM24.8626 11.4052C17.8812 11.4052 12.2415 17.0331 12.2415 24.0001C12.2415 30.9672 17.8812 36.5953 24.8627 36.5953C31.8444 36.5953 37.4842 30.9672 37.4842 24.0001C37.4842 17.0334 31.8444 11.4053 24.8627 11.4053L24.8626 11.4052ZM24.8659 12.9208C31.0009 12.9208 35.9747 17.8842 35.9747 24.0063C35.9747 30.1286 31.001 35.0919 24.8659 35.0919C18.7309 35.0919 13.7572 30.1286 13.7572 24.0062C13.7572 17.884 18.7309 12.9206 24.8659 12.9206V12.9208Z" fill="#E8CC70"/>
</svg>
