<svg viewBox="0 0 50 50" fill="currentColor" xmlns="http://www.w3.org/2000/svg">
  <path
    d="M0 0.000106644C6.30866 11.9817 15.1004 21.5914 24.6125 31.2339L24.9967 31.634L25.0033 31.6274C27.3161 33.9674 29.6698 36.3141 32.0396 38.6965C30.0416 40.277 27.9099 41.7055 25.6886 42.9979L28.7118 46.0421L35.9931 38.7098C40.4792 41.6586 44.0764 45.501 47.0229 50L49.9966 47.0059C45.4965 44.0724 41.5473 40.5818 38.7616 35.9221L46.0661 28.5662L43.0431 25.522C41.8653 27.8538 40.4563 30.0051 38.8608 31.9874C34.2143 27.3138 29.6993 22.8279 25.0727 18.5994C25.049 18.5778 25.027 18.5544 25.0032 18.5328C17.3641 11.5573 9.40556 5.27901 0 0.000106644ZM50 0.000106644C41.2013 4.9383 33.6692 10.7536 26.48 17.1959L28.8974 19.4966L34.917 13.4346L36.3178 14.8417L30.3376 20.864L32.9436 23.338C39.4921 16.1975 45.4045 8.72838 50 0.000106644ZM15.0829 13.4346L36.3343 34.8317C35.8723 35.3058 35.3976 35.7699 34.9139 36.2222L13.6821 14.8416L15.0829 13.4346ZM6.95682 25.5219L3.93695 28.5663L11.2384 35.9188C8.45266 40.5788 4.5067 44.0724 0.00656957 47.0059L2.98013 50C5.92657 45.501 9.52403 41.6586 14.01 38.7098L21.2913 46.0421L24.3144 42.9979C22.0932 41.7054 19.9615 40.2769 17.9634 38.6964C19.8564 36.7938 21.7367 34.9156 23.596 33.0443L20.9636 30.3069L15.086 36.2253C14.6023 35.7731 14.1309 35.3056 13.6689 34.8316L19.5861 28.8729L16.9869 26.1654C15.05 28.0707 13.1086 30.0131 11.1424 31.9907C9.54575 30.0074 8.1351 27.8552 6.95682 25.5219Z" />
</svg>