<svg viewBox="0 0 50 50" fill="currentColor" xmlns="http://www.w3.org/2000/svg">
  <path
    d="M25.0002 0C21.6673 5.17241 18.3344 10.3448 18.3344 17.2414C18.3344 23.3614 22.2687 29.4793 23.1552 33.1897H26.8451C27.7316 29.4793 31.666 23.3614 31.666 17.2414C31.666 10.3448 28.3331 5.17241 25.0002 0ZM8.33215 19.6121C3.33269 19.6121 0 23.0603 0 28.2328C0 31.681 2.34244 35.0782 6.66559 35.1293C4.99925 33.4052 6.66581 28.2328 9.99871 28.2328C13.3765 28.2328 15.9917 30.5944 17.334 33.1897H20.9171C19.4614 28.069 15.7156 19.6121 8.33236 19.6121H8.33215ZM41.6682 19.6121C34.285 19.6121 30.5391 28.069 29.0833 33.1897H32.6663C34.0086 30.5944 36.6237 28.2328 40.0015 28.2328C43.3343 28.2328 45.001 33.4052 43.3344 35.1293C47.6577 35.0782 50 31.681 50 28.2328C50 23.0603 46.6673 19.6121 41.668 19.6121H41.6682ZM14.0984 35.1293C9.99871 35.1293 8.33205 36.8534 8.33205 40.3017C8.33205 42.0259 9.9986 45.4741 13.3315 45.4741C17.0811 45.4741 19.8931 42.5647 21.0648 39.6552H17.2853C16.792 40.0399 16.0672 40.3017 14.9979 40.3017C13.3314 40.3017 11.6652 36.8534 14.0984 35.1293ZM18.0909 35.1293C18.0927 35.1362 18.0941 35.143 18.096 35.1498C16.6883 35.3825 16.7515 37.6652 18.2859 37.7134V37.7155H31.7145L31.7142 37.7134C33.2485 37.6652 33.3118 35.3825 31.904 35.1498C31.9058 35.143 31.9071 35.1362 31.9091 35.1293H18.0909ZM35.902 35.1293C38.3352 36.8534 36.6688 40.3017 35.0025 40.3017C33.9331 40.3017 33.2082 40.0399 32.715 39.6552H28.9355C30.1072 42.5647 32.9192 45.4741 36.6688 45.4741C40.0017 45.4741 41.6683 42.0259 41.6683 40.3017C41.6683 36.8534 40.0016 35.1293 35.902 35.1293ZM23.3338 39.6552C21.6674 41.3793 21.6673 44.8276 20.0008 46.5517L23.3339 44.8276C23.3339 46.5517 23.3339 48.2759 25.0003 50C26.6667 48.2759 26.6666 46.5517 26.6666 44.8276L29.9996 46.5517C28.3331 44.8276 28.333 41.3793 26.6665 39.6552H23.3338Z" />
</svg>