<svg viewBox="0 0 50 50" fill="currentColor" xmlns="http://www.w3.org/2000/svg">
  <path
    d="M31.9982 0C27.3965 0 22.7948 1.75816 19.2797 5.27449C17.2452 7.30756 15.8071 9.70079 14.9443 12.2475C16.7445 11.9917 18.4488 11.9598 20.1319 12.1303C20.5473 11.5442 21.016 10.9901 21.5379 10.468C24.0198 7.98951 27.2687 6.74921 30.5282 6.74921C33.7877 6.74921 37.0472 7.98951 39.5291 10.468C44.4929 15.4335 44.4929 23.5104 39.5291 28.4652C34.5759 33.4307 26.4911 33.4307 21.5379 28.4652C19.1732 26.0997 17.9269 23.0202 17.8204 19.9194C16.5954 20.1112 15.3917 20.5162 14.2839 21.1342C14.9017 24.6505 16.5634 28.007 19.2797 30.7242C26.31 37.7568 37.697 37.7675 44.7273 30.7242C51.7576 23.6915 51.7576 12.3114 44.7273 5.27449C41.2121 1.75816 36.5998 0 31.9982 0ZM13.4531 14.581C10.4812 15.4015 7.17478 17.2875 5.27767 19.2695C0.217977 24.3202 -1.19874 31.6299 1.00622 37.9486C1.95531 40.5166 3.51583 42.9674 5.27767 44.7255C12.3133 51.7582 23.7003 51.7582 30.7306 44.7255C32.7651 42.6903 34.2031 40.2928 35.0659 37.7461C33.3403 38.0125 31.5934 38.0552 29.8678 37.874C29.463 38.4494 28.9943 39.0035 28.4724 39.5256C21.7936 43.7559 13.7939 43.8518 10.0125 39.0568C7.82136 36.2863 6.59851 32.7913 6.75829 29.9143C7.03311 25.4816 9.61835 21.4006 12.9098 19.4186C13.9963 18.79 16.915 17.8096 19.4714 17.8096C23.0611 17.9695 25.9265 18.9924 28.4724 21.5284C30.8477 23.8833 32.0727 26.9734 32.1792 30.0848C33.4149 29.893 34.6185 29.4881 35.7263 28.8701C34.7251 24.4374 32.861 21.0702 29.9849 18.5662C27.7054 16.5736 25.2874 15.2204 22.4646 14.5597C19.4395 13.8138 16.2226 13.8671 13.4531 14.581Z" />
</svg>