<svg viewBox="0 0 38 50" fill="currentColor" xmlns="http://www.w3.org/2000/svg">
  <path
    d="M37.7785 0L27.5337 0.380003L23.6318 4.66547L21.0653 0.939062L0.628461 1.03262L0 28.5374L5.73663 33.8195L18.1426 33.9702L18.1188 35.9302L7.89415 35.8061L9.33533 37.1332L26.7673 38.9686L32.654 38.562L32.7886 40.5176L27.8741 40.857L27.5907 43.6336L37.8971 46.3343L37.8414 24.5448L34.7838 23.1702L37.8298 19.9931L37.7787 0H37.7785ZM20.7953 7.19708L20.8134 9.15722L4.2364 9.31035L4.21834 7.35011L20.7953 7.19708ZM33.8525 7.19708L33.8818 9.15722L23.6454 9.31013L23.6162 7.35011L33.8525 7.19708ZM33.5359 11.4046L33.5874 13.3643L27.7817 13.5172L27.73 11.5576L33.5361 11.4046H33.5359ZM25.0714 11.4808L25.0932 13.441L4.3146 13.6703L4.29285 11.7103L25.0714 11.4808ZM4.54932 15.9942L9.13269 16.0705L9.10017 18.0305L4.51669 17.9539L4.54932 15.9942ZM33.081 15.9942L33.1256 17.9539L16.396 18.3364L16.3514 16.3766L33.081 15.9942ZM11.4846 16.2235H13.8528V18.1837H11.4846V16.2235ZM20.8718 20.2775L20.8896 22.2378L4.16004 22.3908L4.1421 20.4306L20.8717 20.2775H20.8718ZM23.5544 20.2775H33.3324V22.2378H23.5544V20.2775ZM18.6758 25.1732L33.1136 25.3264L33.0929 27.2864L18.655 27.1334L18.6758 25.1732ZM4.15101 25.2498H16.7557V27.21H4.15101V25.2498ZM7.71969 29.6865L7.76319 31.6464L4.3257 31.7229L4.28219 29.7631L7.71969 29.6865ZM33.1425 29.6872L33.2169 31.6459L27.1819 31.8755L27.1077 29.9165L33.1425 29.6872ZM25.6887 29.9924L25.6979 31.9527L9.19752 32.029L9.18838 30.0688L25.6888 29.9924H25.6887ZM0.227977 31.4104L0.189908 33.7602L7.16301 40.0343L7.71773 38.3065L0.227977 31.4104ZM33.091 34.1231L33.1158 36.0831L21.1224 36.2363L21.0974 34.2761L33.091 34.1231ZM9.51175 39.1228L8.9467 40.8831L25.7522 42.3657L25.9071 40.849L9.51175 39.1228ZM26.8033 45.4537L26.3058 47.0917L37.9046 50C37.934 49.4369 37.9668 48.9045 38 48.3875L26.8033 45.4537Z" />
</svg>