<svg viewBox="0 0 60 87" fill="currentColor" xmlns="http://www.w3.org/2000/svg">
  <path
    d="M11.7753 4.4399C16.4297 1.49157 22.1563 0 28.9424 0C37.868 0 45.2651 2.1025 51.163 6.32297C57.0793 10.5067 60 16.7436 60 25.0125C60 30.0701 58.7488 34.3399 56.1686 37.7918C54.6742 39.9088 51.808 42.5942 47.5709 45.8616L43.3631 49.0864C41.0825 50.8409 39.5599 52.866 38.8195 55.2247C38.3486 56.695 38.0976 58.9966 38.0548 62.1161H22.0104C22.2507 55.5234 22.8753 50.9772 23.9017 48.4619C24.9282 45.9466 27.5628 43.0563 31.8135 39.7812L36.1099 36.4569C37.5294 35.3984 38.6736 34.2548 39.5599 33.0117C41.1156 30.8666 41.9017 28.5292 41.9017 25.9366C41.9017 22.9883 41.0358 20.2894 39.2778 17.8456C37.5294 15.4164 34.3266 14.2013 29.6828 14.2013C25.114 14.2013 21.8751 15.7006 19.9741 18.6915C18.0613 21.6959 19.6559 24.8076 19.6559 28.0469H0C0.467975 16.936 4.40052 9.07893 11.7753 4.4399ZM20.4313 68.6333H38.9168V87H20.4313V68.6333Z" />
</svg>