<svg viewBox="0 0 50 50" fill="currentColor" xmlns="http://www.w3.org/2000/svg">
  <path
    d="M36.683 0.000427682C35.0953 -0.0165025 33.8454 0.468999 33.3723 1.49576C31.0565 6.52464 28.4166 10.3299 25.3308 13.3854C25.6405 13.4883 25.9455 13.6176 26.2395 13.7689C27.5599 14.449 28.8085 15.5715 29.8297 16.8958C30.8509 18.22 31.6445 19.7459 31.9424 21.3057C32.0183 21.7019 32.0604 22.1051 32.0602 22.5064C36.0223 20.0368 40.7081 18.3272 46.3831 17.3044C47.899 17.031 48.7878 14.4017 48.5593 11.358L44.985 11.2566L48.092 8.74108C47.6703 7.27038 46.9723 5.82604 45.9412 4.61295C44.3624 2.7563 42.2373 1.43209 40.1744 0.691018L37.5347 2.27191L37.8206 0.0922766C37.4267 0.0365184 37.0469 0.00407736 36.6831 0.000326359L36.683 0.000427682ZM23.8089 15.0203C23.7009 15.0255 23.5995 15.0432 23.5039 15.0679C22.2863 16.1074 21.0018 17.0546 19.6467 17.9349C19.7323 17.9683 19.8165 18.0025 19.9009 18.0395C21.3368 18.6672 22.6906 19.7776 23.8122 21.1442C25.1701 22.7989 26.2137 24.8892 26.4174 26.9988C27.4681 25.9478 28.5769 24.977 29.7567 24.0872C30.1731 23.4227 30.2579 22.6205 30.0744 21.6604C29.8524 20.4987 29.1958 19.1838 28.3206 18.0488C27.4452 16.914 26.3502 15.9582 25.3657 15.451C24.7504 15.1341 24.2317 14.9999 23.8088 15.0202L23.8089 15.0203ZM17.5148 19.4081C17.374 19.4135 17.2413 19.4355 17.1114 19.4651C13.3495 21.5699 9.07041 23.316 4.16742 25.1423C4.22578 25.1466 4.28333 25.1517 4.3423 25.1581C5.42276 25.2753 6.48512 25.6658 7.50986 26.2606L11.3415 24.5942L9.73381 27.9113C10.3433 28.462 10.9338 29.0749 11.4972 29.7362C13.6079 32.2132 15.357 35.3997 16.2853 38.6668C16.2855 38.6678 16.285 38.669 16.2853 38.67C16.5883 39.7353 16.8048 40.7905 16.927 41.8128C19.0611 36.9022 21.4392 32.7637 24.2823 29.3432C25.0245 27.1656 24.0601 24.4357 22.3442 22.3451C21.3844 21.1754 20.2115 20.2447 19.1385 19.7756C18.535 19.5116 17.9926 19.3897 17.5148 19.4081ZM31.9141 24.9681C31.1708 25.4801 30.4437 26.0336 29.7345 26.6218C33.716 27.5606 35.9317 30.2433 37.9348 32.9231C38.9987 34.3464 40.029 35.7728 41.3027 37.048C43.7621 37.9753 45.6918 37.6948 47.8 35.5336C38.4295 32.7173 38.0284 26.1449 31.914 24.9679L31.9141 24.9681ZM3.64311 27.0178C2.53764 27.0406 1.78659 27.6012 1.2697 28.7001C0.678989 29.9558 0.54641 31.9918 1.31423 34.485C1.89884 36.3839 2.99383 38.3088 4.23727 39.7187C5.48071 41.1285 6.87055 41.9567 7.83378 41.9902H7.83704C8.21495 42.0034 8.50328 41.921 8.73296 41.7114L8.71395 41.6923L8.92674 41.48C9.00737 41.3616 9.08129 41.2217 9.1491 41.0556C9.4348 40.3561 9.48258 39.1748 8.96162 37.7101C8.26161 35.7416 7.01767 34.4729 5.56835 34.1841L3.23317 33.7214L5.24758 32.4542L9.15886 30.0023C7.46604 28.2969 5.64613 27.2035 4.13875 27.04C3.96591 27.0213 3.8009 27.0147 3.643 27.0179L3.64311 27.0178ZM27.6629 27.5658L25.1689 30.1383C35.3809 31.9508 30.8065 44.4332 41.3661 48L38.8467 42.193C42.178 43.8303 45.6983 44.4865 48.782 43.4126C34.9781 39.16 38.989 30.5393 27.6629 27.5658ZM10.4327 31.4405L7.7925 33.0974C9.13253 33.9591 10.1523 35.385 10.7537 37.0765C11.015 37.8109 11.1739 38.5165 11.2366 39.1831L13.6198 36.8135C12.7983 34.868 11.6845 33.0051 10.4329 31.4404L10.4327 31.4405ZM14.3344 38.7777L10.0578 43.0356L10.042 43.0198C9.60936 43.4194 9.08057 43.7056 8.498 43.8245C10.8637 45.3323 13.037 45.7858 14.2741 44.7939C14.7073 44.4466 14.9902 43.9464 15.1353 43.3334C15.0936 42.0476 14.8707 40.6353 14.4585 39.1865C14.4196 39.05 14.3765 38.9142 14.3344 38.7777Z" />
</svg>