<svg viewBox="0 0 50 42" fill="currentColor" xmlns="http://www.w3.org/2000/svg">
  <path
    d="M40 30.9126H50V0H0V30.9126H27.5L39 41.5L40 30.9126ZM31.6647 20.2184H31.8253C32.4742 18.4008 34.9426 17.7669 36.4232 19.21C38.2506 20.9911 36.8851 23.9272 34.4592 23.9272C32.9474 23.9272 31.6647 22.7243 31.6647 21.1708V20.2184ZM26.5168 19.2284C28.3347 21.0127 26.9675 23.9394 24.5462 23.9394C23.0274 23.9394 21.7413 22.7254 21.7519 21.1641C21.7692 18.6538 24.8091 17.5529 26.5168 19.2284ZM11.8391 21.1708C11.8391 18.6545 14.8813 17.5376 16.5972 19.21C18.4251 20.9913 17.0589 23.9272 14.6332 23.9272C13.1215 23.9272 11.8391 22.7243 11.8391 21.1708Z" />
</svg>