<svg viewBox="0 0 40 30" fill="currentColor" xmlns="http://www.w3.org/2000/svg">
  <path
    d="M33.4526 22.6342L32.3917 28.5656L28.8709 22.4721L28.7265 22.2222H28.4379H13V19.0606H28.8793H29.3793V18.5606V5.99329H39.5V22.2222H33.9448H33.5263L33.4526 22.6342ZM6.05431 16.7289H0.5V0.5H27V16.7289H11.5629H11.2744L11.13 16.9788L7.60818 23.0747L6.54649 17.1409L6.47279 16.7289H6.05431ZM10.2177 11.1145H10.1326C9.78866 10.1603 8.48041 9.82749 7.69573 10.5851C6.72716 11.5202 7.45091 13.0616 8.73664 13.0616C9.53789 13.0616 10.2177 12.4301 10.2177 11.6145V11.1145ZM12.9461 10.5948L12.946 10.5948C11.9825 11.5315 12.7072 13.068 13.9905 13.068C14.7955 13.068 15.4771 12.4307 15.4715 11.611L15.4715 11.611C15.4623 10.2931 13.8512 9.71517 12.9461 10.5948ZM20.7253 11.6145C20.7253 10.2935 19.1129 9.70713 18.2035 10.5851C17.2347 11.5203 17.9588 13.0616 19.2444 13.0616C20.0456 13.0616 20.7253 12.4301 20.7253 11.6145Z" />
</svg>