<svg viewBox="0 0 40 50" fill="currentColor" xmlns="http://www.w3.org/2000/svg">
  <path
    d="M38.1414 0.0337039C38.0867 0.759265 38.3037 1.58656 38.7387 2.30229C39.1736 3.01792 39.808 3.59118 40.477 3.87641C41.445 2.75215 39.9272 0.066611 38.4625 0.00139876C38.3533 -0.0056241 38.2366 0.0151435 38.1414 0.0337039ZM26.9578 0.87444L25.729 3.29361L31.8466 13.359L34.416 13.1456L35.7871 10.9608L34.8785 9.4659L32.1374 11.1341L28.3344 4.87666L27.8653 4.10525L30.6064 2.43703L29.6694 0.895208L26.9578 0.87444ZM36.3799 1.03697L30.3448 4.70992L32.7415 8.65305L38.7765 4.9801C38.1403 4.5182 37.6058 3.91313 37.197 3.24044C36.7881 2.56785 36.4971 1.8148 36.3799 1.03697ZM23.8464 3.0145L7.63975 3.27736C8.68275 5.68881 8.3909 8.01247 7.19981 9.86359C5.32917 8.43524 2.75421 8.32117 0.842656 8.08611C-0.566993 20.5092 0.219042 30.7566 0.213928 42.4127C0.213527 43.3627 0.0979285 44.7323 0.697781 45.7182C0.886971 46.0292 1.13592 46.3129 1.51279 46.5551C3.28819 45.9325 5.66404 45.307 7.01403 44.3204C6.31713 44.2377 5.5347 44.4159 4.89475 44.4162C4.04675 44.4122 2.97538 43.8032 2.41352 42.4603C2.12087 41.7607 1.7482 40.635 2.39538 39.5436C2.67991 39.0635 3.33611 38.51 3.82508 38.5074C13.3147 38.558 23.014 38.4753 31.8544 38.5229C31.3007 30.8127 30.8505 23.0629 31.3 15.2162L30.8843 15.2506L29.3963 12.8023L22.6922 16.8823L23.3721 17.9456L21.8519 18.9187L15.9269 9.6514L17.4468 8.67824L18.2604 9.95088L25.1242 5.77358L23.9261 3.80217L23.6648 3.37227L23.8464 3.0145ZM5.78265 3.45424C4.24206 4.27822 2.86489 5.23021 1.67301 6.33431C3.2939 6.4843 5.05576 6.64161 6.54963 7.33256C6.86435 5.94444 6.22409 4.63417 5.78265 3.45424ZM26.0619 7.3162L19.3801 11.3828L20.1095 12.5829L23.4507 10.5498L24.3882 12.0925L21.0474 14.1259L21.777 15.3261L28.4586 11.2595L26.0619 7.3162ZM12.8875 11.9887L12.9322 13.7938C9.87203 13.8192 7.05494 13.9973 3.90749 14.0055V12.1996C6.90093 12.1331 9.89428 12.0628 12.8875 11.9886V11.9887ZM27.4235 19.9125L27.4475 21.718L3.95211 22.0333L3.92784 20.2278L27.4235 19.9125ZM27.4313 23.9942L27.4722 25.7993L15.0747 26.0812L15.0336 24.2759L27.4313 23.9942ZM3.85245 24.3049H12.9362V26.1106H3.85245V24.3049ZM27.3929 27.6394L27.4336 29.4445L21.2017 29.5856L21.161 27.7803L27.3929 27.6394ZM19.0026 27.7854L19.0365 29.5909L3.96745 29.8726L3.93366 28.0673L19.0026 27.7854ZM27.6195 33.0833L27.6598 34.8886L15.0625 35.1703L15.0222 33.3653L27.6195 33.0833ZM7.93622 40.1854C8.94383 41.1145 9.73337 42.3991 9.44793 43.8692C9.24 44.9408 8.40303 45.6355 7.46139 46.1873C6.51975 46.7391 5.3785 47.1771 4.20175 47.5832C3.79341 47.7241 3.38441 47.863 2.97478 48L33.1917 47.2303C33.9709 47.1851 34.6613 46.6624 35.1702 45.8853C35.6797 45.1074 35.9199 44.0978 35.8615 43.5541C35.8031 43.0105 35.3746 42.0816 34.7614 41.3991C34.1482 40.7164 33.4032 40.3132 32.8539 40.3339L32.8341 40.3347L7.93622 40.1854ZM3.94739 40.465C3.84012 40.6458 3.90067 41.3392 4.07803 41.7631C4.451 42.6547 4.6824 42.6096 4.90337 42.6106C5.79337 42.8214 6.64257 42.6376 7.49508 42.5077C7.28925 42.0941 6.96541 41.6345 6.46411 41.2925C6.05104 41.0107 4.39124 39.724 3.94739 40.465Z" />
</svg>