<svg width="52" height="52" viewBox="0 0 52 52" fill="none" xmlns="http://www.w3.org/2000/svg">
<path d="M26.0056 0.0299072C24.4215 9.91173 23.0904 15.786 19.4382 19.4382C15.786 23.0904 9.91173 24.4215 0.0299072 26.0056C9.91173 27.5897 15.786 28.9207 19.4382 32.5839C23.0904 36.2361 24.4215 42.1104 26.0056 52C27.5897 42.1104 28.9207 36.2361 32.5729 32.5729C36.2361 28.9207 42.1104 27.5897 52 26.0056C42.1104 24.4215 36.2361 23.0904 32.5839 19.4382C28.9207 15.786 27.5897 9.91173 26.0056 0.0299072ZM44.3876 7.64561C39.3493 11.2868 35.4771 13.9049 32.0229 15.368C32.5839 16.4021 33.233 17.2821 33.981 18.0302C34.729 18.7782 35.6091 19.4272 36.6542 19.9993C38.1282 16.5451 40.7464 12.6729 44.3876 7.64561ZM7.65221 7.65221C11.2978 12.6839 13.9049 16.5451 15.368 19.9883C16.4021 19.4272 17.2821 18.7782 18.0302 18.0302C18.7782 17.2821 19.4272 16.4021 19.9883 15.368C16.5451 13.9049 12.6839 11.2978 7.65221 7.65221ZM36.6542 32.0119C35.6091 32.5839 34.729 33.233 33.981 33.981C33.233 34.729 32.5839 35.6091 32.0119 36.6542C35.4771 38.1172 39.3493 40.7354 44.3876 44.3876C40.7354 39.3493 38.1172 35.4771 36.6542 32.0119ZM15.368 32.0229C13.9049 35.4771 11.2868 39.3493 7.64561 44.3876C12.6729 40.7464 16.5451 38.1282 19.9993 36.6542C19.4272 35.6091 18.7782 34.729 18.0302 33.981C17.2821 33.233 16.4021 32.5839 15.368 32.0229Z" fill="black"/>
</svg>
