<svg viewBox="0 0 16 16" fill="currentColor" xmlns="http://www.w3.org/2000/svg">
  <path
    d="M10.1145 0C7.64018 0.49909 9.45539 2.45498 7.56875 3.72597C7.73469 3.70919 7.90248 3.70193 8.07057 3.7046C8.62832 3.71351 9.19322 3.83199 9.73457 4.07169C9.90441 4.14689 10.0675 4.2315 10.2225 4.32526C10.6371 2.69954 8.95202 1.02492 10.1144 3.42894e-05L10.1145 0ZM3.83735 0.847512C2.44161 2.94855 5.10378 3.05036 4.67308 5.27872C5.26914 4.55088 6.08285 4.0494 6.97268 3.8298C6.11641 2.38687 3.74017 2.39423 3.83735 0.847512ZM14.0182 3.4296C12.9037 3.45946 12.461 5.01552 10.7105 4.66988C11.4416 5.26639 11.9444 6.0824 12.1647 6.97477C13.6134 6.12143 13.6047 3.73998 15.1535 3.83729C14.6936 3.53185 14.3296 3.42124 14.0181 3.42963L14.0182 3.4296ZM7.92398 4.34238C7.11393 4.35813 6.33067 4.6444 5.70142 5.1514L5.30763 5.51311L4.97592 5.93895C4.85347 6.11921 4.74523 6.31248 4.65383 6.51896C4.35503 7.19382 4.27709 7.90888 4.38742 8.58531L4.50292 9.15998L4.75656 9.69605C5.12631 10.4022 5.72953 10.9922 6.51684 11.3407C6.62221 11.3874 6.72867 11.4289 6.83575 11.4649L7.34507 11.5912L7.98716 11.6554C8.92199 11.658 9.82726 11.2998 10.5072 10.6559L10.8721 10.2225L11.1653 9.81813C11.2277 9.70896 11.2856 9.59534 11.3376 9.47782C11.6713 8.72414 11.7299 7.91984 11.5581 7.17601L11.42 6.69449L11.2178 6.26967C10.8469 5.57817 10.2509 5.00029 9.47569 4.65707C9.42878 4.63628 9.3817 4.6168 9.33444 4.59817L8.71478 4.40021L8.10923 4.34351C8.09211 4.34296 8.07499 4.34272 8.05787 4.34241C8.01335 4.34173 7.9685 4.34159 7.92412 4.34241L7.92398 4.34238ZM3.72287 5.71103C2.29659 5.73586 0.898427 6.9043 0 5.88547C0.49902 8.35897 2.45397 6.54635 3.72503 8.43013C3.65127 7.71198 3.75701 6.96597 4.06951 6.25998C4.14409 6.09168 4.2283 5.93111 4.32103 5.7774C4.12166 5.72706 3.92237 5.70761 3.72281 5.71107L3.72287 5.71103ZM12.2664 7.55912C12.3419 8.27983 12.2368 9.02903 11.923 9.73779L11.9166 9.75063C11.8432 9.91486 11.7601 10.0723 11.6693 10.2225C13.2967 10.6418 14.974 8.95082 16 10.1144C15.5 7.63565 13.5373 9.46245 12.2664 7.55905V7.55912ZM3.82981 9.02934C2.38741 9.88589 2.39408 12.2608 0.847508 12.1636C2.95077 13.5608 3.05007 10.8924 5.28517 11.3301C4.55429 10.7347 4.0514 9.92038 3.82985 9.02934H3.82981ZM11.3312 10.704C10.7351 11.4389 9.91914 11.945 9.02513 12.1669C9.87928 13.6141 12.261 13.6052 12.1637 15.1535C13.5631 13.0469 10.8829 12.9497 11.3312 10.704ZM5.77741 11.6768C5.36488 13.3019 7.04737 14.9755 5.88548 16C8.3614 15.5005 6.54277 13.5417 8.43553 12.2707C7.71507 12.3461 6.96659 12.2399 6.2579 11.9261C6.09066 11.8521 5.9302 11.7688 5.77741 11.6768Z" />
</svg>