<svg viewBox="0 0 50 50" fill="currentColor" xmlns="http://www.w3.org/2000/svg">
  <path
    d="M40.8494 0.0015627C39.8609 0.0207167 38.8182 0.417021 37.8064 1.1736C36.3678 2.24987 35.0617 4.04704 34.3291 6.28634C33.5967 8.52576 33.5903 10.7465 34.1154 12.4609C34.6408 14.1752 35.6403 15.3368 36.9623 15.7672C38.284 16.1973 39.7811 15.8493 41.2198 14.773C42.6584 13.6968 43.9645 11.8961 44.6972 9.65676C45.4296 7.41734 45.4396 5.19662 44.9144 3.48234C44.3891 1.76783 43.3862 0.609701 42.0641 0.179421C41.7334 0.0717938 41.3937 0.0123938 41.045 0.00122064C40.9797 -0.000831572 40.9151 8.05215e-05 40.8492 0.00122064L40.8494 0.0015627ZM23.0989 7.9573C20.6253 7.96003 18.1515 8.20846 15.6776 8.7661C12.8375 12.1664 10.6784 15.6359 9.64919 19.9928L13.9105 22.0236C14.8537 18.5195 16.36 15.8878 18.8557 13.2447C21.4445 12.3504 24.0339 12.5336 26.6228 13.4157C18.1586 20.8421 20.7888 27.1742 17.4626 39.2359C12.5997 41.273 7.76047 41.5766 3.4107 39.2357L0.94873 44.5444C7.72308 47.633 15.2841 47.944 22.7072 44.5444C25.0294 39.5914 25.8099 34.4427 25.5575 29.3916C31.9952 37.5941 35.1648 42.5578 36.9513 54H43.5572C43.2015 52.3233 42.8492 50.7628 42.4917 49.3007C39.924 38.7964 37.1032 33.3812 31.0655 26.6801C32.1708 22.5608 33.59 19.8776 37.0443 18.2111C38.3174 20.4647 40.4626 22.3932 42.8693 23.7869L53.9712 23.9651L54.0248 19.2872L44.1592 19.0449C43.2414 18.4115 42.4575 17.7076 41.7934 16.9569C40.0962 17.9922 38.1423 18.3893 36.3031 17.7907C34.2027 17.107 32.7524 15.2868 32.0775 13.0841C31.6805 11.7877 31.5368 10.3421 31.6572 8.83712C28.805 8.28029 25.9513 7.95399 23.0991 7.95695L23.0989 7.9573Z" />
</svg>